<svg xmlns="http://www.w3.org/2000/svg" viewBox="0 0 24 24"><path fill="#2684FF" d="m.364 20.339 4.965 3.048a.763.763 0 0 0 1.05-.247c0-.005.005-.009.005-.009 3.146-5.244 3.774-4.483 13.169-.033a.763.763 0 0 0 1.017-.36c.005-.005.005-.014.009-.019l2.363-5.333a.759.759 0 0 0-.38-.995 585.345 585.345 0 0 1-4.965-2.351C5.976 8.401 2.089 16.175.106 19.302v-.001a.764.764 0 0 0 .258 1.038z"/><path fill="#2684FF" d="M23.894 4.712a.764.764 0 0 0-.258-1.038L18.676.63a.764.764 0 0 0-1.059.205c-.009.014-.019.028-.028.047-3.156 5.263-3.803 4.469-13.155.042a.764.764 0 0 0-1.017.36c-.005.005-.005.014-.009.019L1.04 6.636a.759.759 0 0 0 .38.995 496.76 496.76 0 0 1 4.97 2.357c11.627 5.609 15.508-2.122 17.506-5.277l-.002.001z"/></svg>